<svg xmlns="http://www.w3.org/2000/svg" data-name="Layer 1" width="618.02425" height="580.35562" viewBox="0 0 618.02425 580.35562" xmlns:xlink="http://www.w3.org/1999/xlink"><path d="M866.78315,740.17781H317.47446a26.51639,26.51639,0,0,1-26.48659-26.48658V477.25334a26.51676,26.51676,0,0,1,26.48659-26.48659H866.78315a26.51675,26.51675,0,0,1,26.48658,26.48659V713.69123A26.51638,26.51638,0,0,1,866.78315,740.17781Z" transform="translate(-290.98787 -159.82219)" fill="#fff"/><path d="M866.78315,740.17781H317.47446a26.51639,26.51639,0,0,1-26.48659-26.48658V477.25334a26.51678,26.51678,0,0,1,26.48659-26.4866c163.86832-17.877,350.4556-14.63855,549.30869,0a26.51677,26.51677,0,0,1,26.48657,26.4866c20.58563,68.55548,21.39026,165.99863,0,236.4379A26.51638,26.51638,0,0,1,866.78315,740.17781ZM317.47446,453.06993a24.1834,24.1834,0,0,0-24.1834,24.18341V713.69123a24.1834,24.1834,0,0,0,24.1834,24.1834H866.78315a24.1834,24.1834,0,0,0,24.1834-24.1834V607.09889a154.029,154.029,0,0,0-154.02895-154.029Z" transform="translate(-290.98787 -159.82219)" fill="#e6e6e6"/><path d="M695.23741,485.80539H626.20672a2.87631,2.87631,0,1,1,0-5.75258h69.03069a2.87631,2.87631,0,1,1,0,5.75258Z" transform="translate(-290.98787 -159.82219)" fill="#6c63ff"/><path d="M635.23741,574.80539H566.20672a2.87631,2.87631,0,1,1,0-5.75258h69.03069a2.87631,2.87631,0,1,1,0,5.75258Z" transform="translate(-290.98787 -159.82219)" fill="#6c63ff"/><path d="M689.75513,568.8799a64.3524,64.3524,0,0,1-7.15088-13.20356.75738.75738,0,0,0-1.4071.00019,64.29322,64.29322,0,0,1-7.14923,13.20312.76156.76156,0,0,0,.87811,1.16382l5.97443-2.16144v36.984h2V567.882l5.97662,2.16175A.76154.76154,0,0,0,689.75513,568.8799Z" transform="translate(-290.98787 -159.82219)" fill="#3f3d56"/><path d="M626.60425,503.67634a.75738.75738,0,0,0-1.4071.00019,64.29322,64.29322,0,0,1-7.14923,13.20312.76156.76156,0,0,0,.87811,1.16382l5.97443-2.16144v36.984h2V515.882l5.97662,2.16175a.76154.76154,0,0,0,.87805-1.16382A64.3524,64.3524,0,0,1,626.60425,503.67634Z" transform="translate(-290.98787 -159.82219)" fill="#3f3d56"/><path d="M570.60425,586.67634a.75738.75738,0,0,0-1.4071.00019,64.29322,64.29322,0,0,1-7.14923,13.20312.76156.76156,0,0,0,.87811,1.16382l5.97443-2.16144v36.984h2V598.882l5.97662,2.16175a.76154.76154,0,0,0,.87805-1.16382A64.3524,64.3524,0,0,1,570.60425,586.67634Z" transform="translate(-290.98787 -159.82219)" fill="#3f3d56"/><path d="M815.90046,616.866v-16c-31.9231-23.482-49.62055-23.72912-60-19-13.1753,6.003-17.48261,21.35169-22.43476,35Z" transform="translate(-290.98787 -159.82219)" fill="#f2f2f2"/><path d="M559.03113,678.866c-6.91919-5.40607-9.91815-20.02338-24.13067-24-8.28925-2.31933-15.27973.41522-27,5-15.445,6.04181-22.251,12.89478-31.392,19Z" transform="translate(-290.98787 -159.82219)" fill="#f2f2f2"/><path d="M589.80982,650.866c-9.26123,11.73261-13.78363,23.41864-19.68512,28H815.90046v-28Z" transform="translate(-290.98787 -159.82219)" fill="#f2f2f2"/><path d="M732.35236,619.866c-3.78174,9.88855-8.3053,18.39179-17.4519,21-16.10175,4.59149-23.32385-15.698-54-19-3.128-.33673-30.27869-2.883-54,13a72.84805,72.84805,0,0,0-14.62128,13H815.90046v-28Z" transform="translate(-290.98787 -159.82219)" fill="#f2f2f2"/><circle cx="341.91258" cy="464.04379" r="15" fill="#6c63ff"/><polygon points="159.316 563.163 173.581 563.162 180.366 508.14 159.313 508.142 159.316 563.163" fill="#ffb6b6"/><path d="M449.80187,737.866l43.86576-.00167v-.55469a17.07471,17.07471,0,0,0-17.07378-17.07351h-.001l-8.01262-6.07876-14.9498,6.07972-3.82921.00009Z" transform="translate(-290.98787 -159.82219)" fill="#2f2e41"/><polygon points="167.342 505.533 155.746 513.84 118.182 473.069 135.296 460.807 167.342 505.533" fill="#ffb6b6"/><path d="M467.40582,677.1583l-35.65707,25.54952-.3231-.45088a17.07471,17.07471,0,0,1,3.93339-23.82325l.00086-.00061,2.97227-9.60828,15.6932-3.76606,3.1126-2.23037Z" transform="translate(-290.98787 -159.82219)" fill="#2f2e41"/><path d="M404.844,409.98643s-88.43823,95.15982-73.14153,123.05381S420.7833,656.31369,420.7833,656.31369l20.22792-23.22637c-17.00055-40.339-35.2932-75.59465-56.63359-98.85972l61.83775-45.68171s4.55033,75.61991.8067,87.50122-10.04227,5.58267-3.74363,11.88131,9.47592,7.45492,6.08767,11.37582-5.82527,93.24262-5.82527,93.24262h29.09821s27.15414-164.55729,25.44105-170.58011-.73046-3.26145-.77187-10.94078,12.37593-70.59071,12.37593-70.59071Z" transform="translate(-290.98787 -159.82219)" fill="#2f2e41"/><path d="M464.8738,231.84609l-27.894,1.79961-18.30412,23.44289-30.4558,23.20815,19.32354,58.81s-.95156,30.05544-4.20362,33.83179-8.65089-.72267-3.25206,7.37558a34.2853,34.2853,0,0,1,5.39884,17.13974s-30.76379,25.60106-19.79573,32.3496,33.12189-10.79767,44.45493-.4499S516.76465,460.53873,517.06256,446s-18.79845-128.06365-18.79845-128.06365l4.40155-54.597L477.47109,246.243Z" transform="translate(-290.98787 -159.82219)" fill="#6c63ff"/><path d="M420.72218,461.23778l-9.45513-28.46261L394.254,435.90794l11.06726,29.73674a10.04008,10.04008,0,1,0,15.40093-4.4069Z" transform="translate(-290.98787 -159.82219)" fill="#ffb6b6"/><path d="M395.56309,275.71627l-.44853.18686a27.8091,27.8091,0,0,0-16.5216,19.99654c-2.41151,11.5422-4.7842,28.23673-2.90829,43.86912,3.313,27.60886-3.47631,39.75673.94113,48.59156s5.52176,5.52176,4.4174,12.14791-6.62615,1.10436-1.10436,9.93919,8.83483,6.62615,6.62615,11.04355-5.52176,4.4174-1.10436,9.93919,4.4174,7.73048,5.52176,9.93919,4.4174,18.774,4.4174,18.774,17.66966-5.52179,27.60882-3.31308c0,0-8.83487-15.461-6.62616-18.774s5.5218-4.41744,2.20872-7.73047-8.83487-2.20872-3.31307-5.5218,1.00617-70.58431,1.00617-70.58431Z" transform="translate(-290.98787 -159.82219)" fill="#6c63ff"/><path d="M541.98285,428.21621l-6.45379-29.28939,16.21739-6.02121,5.72152,31.20933a10.04007,10.04007,0,1,1-15.48512,4.10127Z" transform="translate(-290.98787 -159.82219)" fill="#ffb6b6"/><path d="M476.31972,251.37364l.48094-.06918a27.80911,27.80911,0,0,1,24.43087,8.71538c7.98187,8.67914,18.56881,21.80369,24.96256,36.19155,11.29227,25.41082,15.61582,36.97612,16.34566,46.82677s-1.91525,7.57043,2.42644,12.69636,6.257-2.44455,6.03825,7.97162-4.19545,10.21559-.03626,12.87884,7.00491.96668,6.03824,7.97162.16436,8.90206.34683,11.36473,5.81954,18.38777,5.81954,18.38777-18.00474,4.30542-25.41081,11.29222c0,0-.32865-17.80415-3.92236-19.51883s-7.005-.9667-5.85578-5.509,6.45756-6.42132.01812-6.43944-45.132-83.10507-45.132-83.10507Z" transform="translate(-290.98787 -159.82219)" fill="#6c63ff"/><circle cx="158.33257" cy="39.76798" r="29.36465" fill="#ffb6b6"/><path d="M483.5479,190.04846c-3.01614,1.3753-4.97043,11.33595-7.34109,9.02031s-2.21244-5.32911-5.40856-6.18369c-2.581-.69307-5.35864.099-7.71291,1.34826-.42036.22043-.8279.4601-1.2251.69846-.26219-.17518-.52313-.34-.80325-.4921a9.33042,9.33042,0,0,0-6.86727-.77244,9.15477,9.15477,0,0,1,4.52388,3.33443c-.78793.528-1.58606,1.05741-2.40238,1.52648-6.81991,3.93566-16.52438-4.62227-23.703-7.83727,4.49648,8.43794,2.28241,11.93251-1.62182,20.65916l-.13482.49691c.2218-2.18714-6.54617-3.8171-6.1537-.73825a37.073,37.073,0,0,0,3.23,8.9749c-7.54751-8.727-12.70524-19.40653-11.61689-30.42333.23691-2.31428.1655-4.75611,1.35918-6.76477,1.19493-1.99832,3.68616-3.4006,5.89009-2.63858A19.46908,19.46908,0,0,1,452.87,162.44078c2.8182,1.65366,5.17093,3.99247,7.75387,6.00988,2.583,2.01739,5.5606,3.77589,8.83586,3.94243,2.07781.10021,4.33893-.40706,6.124.66909,2.06782,1.24871,2.4219,3.86311,2.7322,6.37882a9.31986,9.31986,0,0,0-5.02142,2.08976,9.11943,9.11943,0,0,1,5.49,1.17755.56811.56811,0,0,1,.08991.05111C479.96771,186.91706,479.85572,187.83877,483.5479,190.04846Z" transform="translate(-290.98787 -159.82219)" fill="#2f2e41"/><path d="M749.23741,545.80539H680.20672a2.87631,2.87631,0,1,1,0-5.75258h69.03069a2.87631,2.87631,0,1,1,0,5.75258Z" transform="translate(-290.98787 -159.82219)" fill="#6c63ff"/><path d="M379.84922,718.05962a2.80741,2.80741,0,0,1-2.03464-4.86593l.19236-.76477q-.038-.09187-.07643-.18357a7.5391,7.5391,0,0,0-13.90674.05167c-2.27451,5.4781-5.17037,10.96553-5.8834,16.75771a22.30356,22.30356,0,0,0,.39152,7.6706,89.41955,89.41955,0,0,1-8.13413-37.13874,86.307,86.307,0,0,1,.53536-9.62829q.44349-3.93128,1.23055-7.80653a90.45545,90.45545,0,0,1,17.93812-38.33731,24.07276,24.07276,0,0,0,10.0118-10.38734,18.3625,18.3625,0,0,0,1.67-5.01791c-.48739.06393-1.83779-7.35909-1.47018-7.81452-.67924-1.03071-1.895-1.54307-2.6368-2.54885-3.68944-5.00211-8.77254-4.12872-11.42613,2.66875-5.66869,2.861-5.72356,7.60578-2.24528,12.16916,2.2129,2.90325,2.517,6.83168,4.45862,9.93985-.1998.25571-.40755.50344-.60729.75916a91.03873,91.03873,0,0,0-9.50223,15.05378,37.84589,37.84589,0,0,0-2.25945-17.5787c-2.16269-5.21725-6.21632-9.61123-9.786-14.12153-4.2878-5.41757-13.08034-3.05324-13.83575,3.81438q-.011.09975-.02142.19942.79533.44867,1.55706.95247a3.808,3.808,0,0,1-1.53532,6.92992l-.07766.012a37.88985,37.88985,0,0,0,.99877,5.66515c-4.5795,17.71009,5.3073,24.16047,19.42431,24.45023.31164.15979.61532.31957.927.47144a92.9244,92.9244,0,0,0-5.00193,23.53931,88.13549,88.13549,0,0,0,.06393,14.23066l-.024-.16778a23.28925,23.28925,0,0,0-7.95036-13.44763c-6.11822-5.0259-14.76212-6.87666-21.36259-10.9165a4.37072,4.37072,0,0,0-6.69422,4.252q.01327.08818.027.17642a25.57718,25.57718,0,0,1,2.86848,1.38225q.79533.44877,1.55707.95247a3.80809,3.80809,0,0,1-1.53534,6.93l-.07771.01194c-.05591.008-.10388.016-.15972.024a37.92259,37.92259,0,0,0,6.97544,10.92265c2.86344,15.46021,15.162,16.927,28.31754,12.42487h.008a92.89637,92.89637,0,0,0,6.24043,18.21782h22.2928c.08-.24769.15184-.50341.22378-.75113a25.32946,25.32946,0,0,1-6.16855-.36745c1.654-2.02958,3.308-4.07513,4.962-6.10463a1.38576,1.38576,0,0,0,.10388-.11987c.839-1.03867,1.68594-2.06946,2.52491-3.10816l.00045-.00127a37.10156,37.10156,0,0,0-1.08712-9.45126Z" transform="translate(-290.98787 -159.82219)" fill="#f2f2f2"/></svg>